<svg width="46" height="50" viewBox="0 0 46 50" fill="none" xmlns="http://www.w3.org/2000/svg">
<g filter="url(#filter0_dd_966_6737)">
<rect x="3" y="2" width="40" height="40" rx="12" fill="url(#paint0_linear_966_6737)" style=""/>
<rect x="5" y="4" width="36" height="36" rx="10" stroke="url(#paint1_linear_966_6737)" style="" stroke-width="4"/>
<path d="M16.6134 22.4761C16.5226 22.3323 16.4772 22.2605 16.4518 22.1496C16.4327 22.0663 16.4327 21.935 16.4518 21.8517C16.4772 21.7408 16.5226 21.669 16.6134 21.5252C17.3637 20.3372 19.5969 17.334 23.0003 17.334C26.4036 17.334 28.6369 20.3372 29.3871 21.5252C29.4779 21.669 29.5233 21.7408 29.5487 21.8517C29.5678 21.935 29.5678 22.0663 29.5487 22.1496C29.5233 22.2605 29.4779 22.3323 29.3871 22.4761C28.6369 23.6641 26.4036 26.6673 23.0003 26.6673C19.5969 26.6673 17.3637 23.6641 16.6134 22.4761Z" stroke="#868686" style="stroke:#868686;stroke:color(display-p3 0.5274 0.5274 0.5274);stroke-opacity:1;" stroke-width="1.33333" stroke-linecap="round" stroke-linejoin="round"/>
<path d="M23.0003 24.0007C24.1048 24.0007 25.0003 23.1052 25.0003 22.0007C25.0003 20.8961 24.1048 20.0007 23.0003 20.0007C21.8957 20.0007 21.0003 20.8961 21.0003 22.0007C21.0003 23.1052 21.8957 24.0007 23.0003 24.0007Z" stroke="#868686" style="stroke:#868686;stroke:color(display-p3 0.5274 0.5274 0.5274);stroke-opacity:1;" stroke-width="1.33333" stroke-linecap="round" stroke-linejoin="round"/>
</g>
<defs>
<filter id="filter0_dd_966_6737" x="0.296966" y="0.455409" width="45.4061" height="48.8814" filterUnits="userSpaceOnUse" color-interpolation-filters="sRGB">
<feFlood flood-opacity="0" result="BackgroundImageFix"/>
<feColorMatrix in="SourceAlpha" type="matrix" values="0 0 0 0 0 0 0 0 0 0 0 0 0 0 0 0 0 0 127 0" result="hardAlpha"/>
<feMorphology radius="2.31689" operator="erode" in="SourceAlpha" result="effect1_dropShadow_966_6737"/>
<feOffset dy="4.63377"/>
<feGaussianBlur stdDeviation="2.50996"/>
<feComposite in2="hardAlpha" operator="out"/>
<feColorMatrix type="matrix" values="0 0 0 0 0 0 0 0 0 0 0 0 0 0 0 0 0 0 0.1 0"/>
<feBlend mode="normal" in2="BackgroundImageFix" result="effect1_dropShadow_966_6737"/>
<feColorMatrix in="SourceAlpha" type="matrix" values="0 0 0 0 0 0 0 0 0 0 0 0 0 0 0 0 0 0 127 0" result="hardAlpha"/>
<feMorphology radius="1.15844" operator="dilate" in="SourceAlpha" result="effect2_dropShadow_966_6737"/>
<feOffset/>
<feGaussianBlur stdDeviation="0.193074"/>
<feComposite in2="hardAlpha" operator="out"/>
<feColorMatrix type="matrix" values="0 0 0 0 0 0 0 0 0 0 0 0 0 0 0 0 0 0 0.05 0"/>
<feBlend mode="normal" in2="effect1_dropShadow_966_6737" result="effect2_dropShadow_966_6737"/>
<feBlend mode="normal" in="SourceGraphic" in2="effect2_dropShadow_966_6737" result="shape"/>
</filter>
<linearGradient id="paint0_linear_966_6737" x1="23" y1="2" x2="23" y2="42" gradientUnits="userSpaceOnUse">
<stop stop-color="#F4F4F4" style="stop-color:#F4F4F4;stop-color:color(display-p3 0.9569 0.9569 0.9569);stop-opacity:1;"/>
<stop offset="1" stop-color="#FEFEFE" style="stop-color:#FEFEFE;stop-color:color(display-p3 0.9961 0.9961 0.9961);stop-opacity:1;"/>
</linearGradient>
<linearGradient id="paint1_linear_966_6737" x1="23" y1="2" x2="23" y2="42" gradientUnits="userSpaceOnUse">
<stop stop-color="white" style="stop-color:white;stop-opacity:1;"/>
<stop offset="1" stop-color="#F5F5F5" style="stop-color:#F5F5F5;stop-color:color(display-p3 0.9608 0.9608 0.9608);stop-opacity:1;"/>
</linearGradient>
</defs>
</svg>
