<svg width="169" height="50" viewBox="0 0 169 50" fill="none" xmlns="http://www.w3.org/2000/svg">
<g filter="url(#filter0_dd_991_9199)">
<rect x="3" y="2" width="163" height="40" rx="10" fill="url(#paint0_linear_991_9199)" style=""/>
<rect x="5" y="4" width="159" height="36" rx="8" stroke="url(#paint1_linear_991_9199)" style="" stroke-width="4"/>
<path d="M27.0002 17.333V26.6663M22.3335 21.9997H31.6668" stroke="white" style="stroke:white;stroke-opacity:1;" stroke-width="1.33333" stroke-linecap="round" stroke-linejoin="round"/>
<path d="M41.016 27H39.154L42.85 16.766H44.684L48.38 27H46.49L45.664 24.634H41.842L41.016 27ZM43.536 19.818L42.374 23.122H45.146L43.97 19.818C43.886 19.552 43.788 19.244 43.76 19.034C43.718 19.23 43.634 19.538 43.536 19.818ZM51.9388 27.182C49.9368 27.182 48.6908 25.712 48.6908 23.57C48.6908 21.414 49.9508 19.874 52.0368 19.874C53.0028 19.874 53.8568 20.28 54.2908 20.966V16.584H55.9848V27H54.4168L54.3048 25.922C53.8848 26.72 52.9888 27.182 51.9388 27.182ZM52.3168 25.614C53.5068 25.614 54.2768 24.76 54.2768 23.514C54.2768 22.268 53.5068 21.4 52.3168 21.4C51.1268 21.4 50.3988 22.282 50.3988 23.514C50.3988 24.746 51.1268 25.614 52.3168 25.614ZM60.6068 27.182C58.6048 27.182 57.3588 25.712 57.3588 23.57C57.3588 21.414 58.6188 19.874 60.7048 19.874C61.6708 19.874 62.5248 20.28 62.9588 20.966V16.584H64.6528V27H63.0848L62.9728 25.922C62.5528 26.72 61.6568 27.182 60.6068 27.182ZM60.9848 25.614C62.1748 25.614 62.9448 24.76 62.9448 23.514C62.9448 22.268 62.1748 21.4 60.9848 21.4C59.7948 21.4 59.0668 22.282 59.0668 23.514C59.0668 24.746 59.7948 25.614 60.9848 25.614ZM72.2222 27H70.4582V16.766H72.2362L77.0382 24.018V16.766H78.8022V27H77.0382L72.2222 19.748V27ZM83.9096 27.182C81.8516 27.182 80.4096 25.684 80.4096 23.542C80.4096 21.372 81.8236 19.874 83.8536 19.874C85.9256 19.874 87.2416 21.26 87.2416 23.416V23.934L82.0336 23.948C82.1596 25.166 82.8036 25.782 83.9376 25.782C84.8756 25.782 85.4916 25.418 85.6876 24.76H87.2696C86.9756 26.272 85.7156 27.182 83.9096 27.182ZM83.8676 21.274C82.8596 21.274 82.2436 21.82 82.0756 22.856H85.5476C85.5476 21.904 84.8896 21.274 83.8676 21.274ZM89.8338 27L87.5938 20.084H89.3718L90.2818 23.052C90.4358 23.598 90.5758 24.2 90.7018 24.844C90.8278 24.172 90.9538 23.738 91.1778 23.052L92.1298 20.084H93.8658L94.7898 23.052C94.8738 23.332 95.1538 24.368 95.2378 24.83C95.3498 24.312 95.5738 23.486 95.6998 23.052L96.6238 20.084H98.4298L96.0358 27H94.4398L93.4878 24.004C93.2078 23.094 93.0538 22.436 92.9978 22.086C92.9278 22.408 92.8018 22.898 92.4518 24.032L91.4998 27H89.8338ZM103.419 23.262V16.766H105.211V23.15C105.211 24.62 106.009 25.432 107.465 25.432C108.921 25.432 109.733 24.606 109.733 23.15V16.766H111.525V23.262C111.525 25.656 109.957 27.168 107.465 27.168C104.987 27.168 103.419 25.67 103.419 23.262ZM113.478 30.206V20.084H115.06L115.172 21.134C115.592 20.336 116.502 19.874 117.552 19.874C119.498 19.874 120.786 21.288 120.786 23.458C120.786 25.614 119.61 27.182 117.552 27.182C116.516 27.182 115.62 26.776 115.186 26.076V30.206H113.478ZM115.2 23.542C115.2 24.788 115.97 25.642 117.146 25.642C118.35 25.642 119.064 24.774 119.064 23.542C119.064 22.31 118.35 21.428 117.146 21.428C115.97 21.428 115.2 22.296 115.2 23.542ZM124.988 27.182C122.986 27.182 121.74 25.712 121.74 23.57C121.74 21.414 123 19.874 125.086 19.874C126.052 19.874 126.906 20.28 127.34 20.966V16.584H129.034V27H127.466L127.354 25.922C126.934 26.72 126.038 27.182 124.988 27.182ZM125.366 25.614C126.556 25.614 127.326 24.76 127.326 23.514C127.326 22.268 126.556 21.4 125.366 21.4C124.176 21.4 123.448 22.282 123.448 23.514C123.448 24.746 124.176 25.614 125.366 25.614ZM132.872 27.182C131.402 27.182 130.506 26.328 130.506 25.026C130.506 23.752 131.43 22.954 133.068 22.828L135.14 22.674V22.52C135.14 21.582 134.58 21.204 133.712 21.204C132.704 21.204 132.144 21.624 132.144 22.352H130.688C130.688 20.854 131.92 19.874 133.796 19.874C135.658 19.874 136.806 20.882 136.806 22.8V27H135.308L135.182 25.978C134.888 26.692 133.95 27.182 132.872 27.182ZM133.432 25.894C134.482 25.894 135.154 25.264 135.154 24.2V23.836L133.712 23.948C132.648 24.046 132.242 24.396 132.242 24.956C132.242 25.586 132.662 25.894 133.432 25.894ZM140.74 27H139.032V21.512H137.702V20.084H139.032V17.928H140.74V20.084H142.084V21.512H140.74V27ZM146.171 27.182C144.113 27.182 142.671 25.684 142.671 23.542C142.671 21.372 144.085 19.874 146.115 19.874C148.187 19.874 149.503 21.26 149.503 23.416V23.934L144.295 23.948C144.421 25.166 145.065 25.782 146.199 25.782C147.137 25.782 147.753 25.418 147.949 24.76H149.531C149.237 26.272 147.977 27.182 146.171 27.182ZM146.129 21.274C145.121 21.274 144.505 21.82 144.337 22.856H147.809C147.809 21.904 147.151 21.274 146.129 21.274Z" fill="white" style="fill:white;fill-opacity:1;"/>
</g>
<defs>
<filter id="filter0_dd_991_9199" x="0.296966" y="0.455409" width="168.406" height="48.8814" filterUnits="userSpaceOnUse" color-interpolation-filters="sRGB">
<feFlood flood-opacity="0" result="BackgroundImageFix"/>
<feColorMatrix in="SourceAlpha" type="matrix" values="0 0 0 0 0 0 0 0 0 0 0 0 0 0 0 0 0 0 127 0" result="hardAlpha"/>
<feMorphology radius="2.31689" operator="erode" in="SourceAlpha" result="effect1_dropShadow_991_9199"/>
<feOffset dy="4.63377"/>
<feGaussianBlur stdDeviation="2.50996"/>
<feComposite in2="hardAlpha" operator="out"/>
<feColorMatrix type="matrix" values="0 0 0 0 0 0 0 0 0 0 0 0 0 0 0 0 0 0 0.2 0"/>
<feBlend mode="normal" in2="BackgroundImageFix" result="effect1_dropShadow_991_9199"/>
<feColorMatrix in="SourceAlpha" type="matrix" values="0 0 0 0 0 0 0 0 0 0 0 0 0 0 0 0 0 0 127 0" result="hardAlpha"/>
<feMorphology radius="1.15844" operator="dilate" in="SourceAlpha" result="effect2_dropShadow_991_9199"/>
<feOffset/>
<feGaussianBlur stdDeviation="0.193074"/>
<feComposite in2="hardAlpha" operator="out"/>
<feColorMatrix type="matrix" values="0 0 0 0 0 0 0 0 0 0 0 0 0 0 0 0 0 0 0.05 0"/>
<feBlend mode="normal" in2="effect1_dropShadow_991_9199" result="effect2_dropShadow_991_9199"/>
<feBlend mode="normal" in="SourceGraphic" in2="effect2_dropShadow_991_9199" result="shape"/>
</filter>
<linearGradient id="paint0_linear_991_9199" x1="84.5" y1="-7.58333" x2="84.5" y2="55.75" gradientUnits="userSpaceOnUse">
<stop stop-color="#1246FF" style="stop-color:#1246FF;stop-color:color(display-p3 0.0706 0.2745 1.0000);stop-opacity:1;"/>
<stop offset="1" stop-color="#4770FF" style="stop-color:#4770FF;stop-color:color(display-p3 0.2793 0.4374 1.0000);stop-opacity:1;"/>
</linearGradient>
<linearGradient id="paint1_linear_991_9199" x1="84.5" y1="54.0833" x2="84.5" y2="-4.25" gradientUnits="userSpaceOnUse">
<stop stop-color="#1246FF" style="stop-color:#1246FF;stop-color:color(display-p3 0.0706 0.2745 1.0000);stop-opacity:1;"/>
<stop offset="1" stop-color="#4770FF" style="stop-color:#4770FF;stop-color:color(display-p3 0.2784 0.4392 1.0000);stop-opacity:1;"/>
</linearGradient>
</defs>
</svg>
