<svg width="16" height="20" viewBox="0 0 16 20" fill="none" xmlns="http://www.w3.org/2000/svg">
<path d="M5.79496 17.5003C6.38257 18.019 7.15444 18.3337 7.99981 18.3337C8.84518 18.3337 9.61705 18.019 10.2047 17.5003M12.9998 6.66699C12.9998 5.34091 12.473 4.06914 11.5353 3.13146C10.5977 2.19378 9.32589 1.66699 7.99981 1.66699C6.67373 1.66699 5.40196 2.19378 4.46428 3.13146C3.5266 4.06914 2.99981 5.34091 2.99981 6.66699C2.99981 9.24215 2.3502 11.0053 1.62453 12.1715C1.01242 13.1552 0.706361 13.6471 0.717583 13.7843C0.730009 13.9362 0.762196 13.9942 0.884625 14.085C0.995195 14.167 1.49364 14.167 2.49052 14.167H13.5091C14.506 14.167 15.0044 14.167 15.115 14.085C15.2374 13.9942 15.2696 13.9362 15.282 13.7843C15.2933 13.6471 14.9872 13.1552 14.3751 12.1715C13.6494 11.0053 12.9998 9.24215 12.9998 6.66699Z" stroke="#868686" stroke-width="1.38889" stroke-linecap="round" stroke-linejoin="round"/>
</svg>
