<svg width="20" height="19" viewBox="0 0 20 19" fill="none" xmlns="http://www.w3.org/2000/svg">
<path d="M17.3659 14.497C18.8218 15.2284 20.0701 16.4021 20.9812 17.8698C21.1616 18.1604 21.2518 18.3057 21.283 18.507C21.3464 18.9159 21.0667 19.4187 20.6859 19.5805C20.4984 19.6602 20.2876 19.6602 19.8659 19.6602M15.3659 10.1924C16.8476 9.45605 17.8659 7.92702 17.8659 6.16016C17.8659 4.3933 16.8476 2.86427 15.3659 2.12792M13.3659 6.16016C13.3659 8.64544 11.3512 10.6602 8.86593 10.6602C6.38064 10.6602 4.36593 8.64544 4.36593 6.16016C4.36593 3.67487 6.38064 1.66016 8.86593 1.66016C11.3512 1.66016 13.3659 3.67487 13.3659 6.16016ZM1.92516 17.5985C3.51946 15.2047 6.0353 13.6602 8.86592 13.6602C11.6966 13.6602 14.2124 15.2047 15.8067 17.5985C16.156 18.1229 16.3306 18.3851 16.3105 18.7201C16.2948 18.9809 16.1239 19.3001 15.9155 19.4577C15.6478 19.6602 15.2798 19.6602 14.5436 19.6602H3.18828C2.4521 19.6602 2.084 19.6602 1.81636 19.4577C1.60797 19.3001 1.43701 18.9809 1.42136 18.7201C1.40125 18.3851 1.57589 18.1229 1.92516 17.5985Z" stroke="#1246FF" style="stroke:#1246FF;stroke:color(display-p3 0.0706 0.2745 1.0000);stroke-opacity:1;" stroke-width="2" stroke-linecap="round" stroke-linejoin="round"/>
</svg>
