<svg width="118" height="50" viewBox="0 0 118 50" fill="none" xmlns="http://www.w3.org/2000/svg">
<g filter="url(#filter0_dd_994_211)">
<rect x="3" y="2" width="112" height="40" rx="12" fill="url(#paint0_linear_994_211)" style=""/>
<rect x="5" y="4" width="108" height="36" rx="10" stroke="url(#paint1_linear_994_211)" style="" stroke-width="4"/>
<path d="M24.46 27.168C21.478 27.168 19.546 25.096 19.546 21.89C19.546 18.712 21.548 16.598 24.544 16.598C26.966 16.598 28.772 18.012 29.122 20.21H27.232C26.882 19.02 25.86 18.32 24.502 18.32C22.612 18.32 21.422 19.692 21.422 21.876C21.422 24.046 22.626 25.446 24.502 25.446C25.888 25.446 26.952 24.718 27.288 23.584H29.15C28.758 25.74 26.882 27.168 24.46 27.168ZM30.099 23.528C30.099 21.372 31.653 19.888 33.795 19.888C35.937 19.888 37.491 21.372 37.491 23.528C37.491 25.684 35.937 27.168 33.795 27.168C31.653 27.168 30.099 25.684 30.099 23.528ZM31.807 23.528C31.807 24.788 32.619 25.642 33.795 25.642C34.971 25.642 35.783 24.788 35.783 23.528C35.783 22.268 34.971 21.414 33.795 21.414C32.619 21.414 31.807 22.268 31.807 23.528ZM40.5529 27H38.8449V20.084H40.4269L40.5669 20.98C41.0009 20.28 41.8409 19.874 42.7789 19.874C44.5149 19.874 45.4109 20.952 45.4109 22.744V27H43.7029V23.15C43.7029 21.988 43.1289 21.428 42.2469 21.428C41.1969 21.428 40.5529 22.156 40.5529 23.276V27ZM48.797 27H47.089V20.084H48.671L48.811 20.98C49.245 20.28 50.085 19.874 51.023 19.874C52.759 19.874 53.655 20.952 53.655 22.744V27H51.947V23.15C51.947 21.988 51.373 21.428 50.491 21.428C49.441 21.428 48.797 22.156 48.797 23.276V27ZM58.4272 27.182C56.3692 27.182 54.9272 25.684 54.9272 23.542C54.9272 21.372 56.3412 19.874 58.3712 19.874C60.4432 19.874 61.7592 21.26 61.7592 23.416V23.934L56.5512 23.948C56.6772 25.166 57.3212 25.782 58.4552 25.782C59.3932 25.782 60.0092 25.418 60.2052 24.76H61.7872C61.4932 26.272 60.2332 27.182 58.4272 27.182ZM58.3852 21.274C57.3772 21.274 56.7612 21.82 56.5932 22.856H60.0652C60.0652 21.904 59.4072 21.274 58.3852 21.274ZM62.7201 23.528C62.7201 21.386 64.1341 19.874 66.1781 19.874C68.0681 19.874 69.3561 20.924 69.5381 22.59H67.8301C67.6341 21.806 67.0601 21.4 66.2481 21.4C65.1561 21.4 64.4281 22.226 64.4281 23.528C64.4281 24.83 65.1001 25.642 66.1921 25.642C67.0461 25.642 67.6481 25.222 67.8301 24.466H69.5521C69.3421 26.076 67.9981 27.182 66.1921 27.182C64.0921 27.182 62.7201 25.726 62.7201 23.528ZM73.1754 27H71.4674V21.512H70.1374V20.084H71.4674V17.928H73.1754V20.084H74.5194V21.512H73.1754V27Z" fill="#868686" style="fill:#868686;fill:color(display-p3 0.5274 0.5274 0.5274);fill-opacity:1;"/>
<path d="M96.3333 20.3333V18.8C96.3333 18.0533 96.3333 17.6799 96.188 17.3947C96.0602 17.1438 95.8562 16.9398 95.6053 16.812C95.3201 16.6667 94.9467 16.6667 94.2 16.6667H86.4666C85.7199 16.6667 85.3465 16.6667 85.0613 16.812C84.8104 16.9398 84.6065 17.1438 84.4786 17.3947C84.3333 17.6799 84.3333 18.0533 84.3333 18.8V25.2C84.3333 25.9467 84.3333 26.3201 84.4786 26.6053C84.6065 26.8562 84.8104 27.0602 85.0613 27.188C85.3465 27.3333 85.7199 27.3333 86.4666 27.3333L94.2 27.3333C94.9467 27.3333 95.3201 27.3333 95.6053 27.188C95.8562 27.0602 96.0602 26.8562 96.188 26.6053C96.3333 26.3201 96.3333 25.9467 96.3333 25.2V23.6667M93 22C93 21.6902 93 21.5353 93.0256 21.4065C93.1308 20.8776 93.5443 20.4642 94.0732 20.3589C94.202 20.3333 94.3569 20.3333 94.6666 20.3333H96C96.3098 20.3333 96.4646 20.3333 96.5934 20.3589C97.1224 20.4642 97.5358 20.8776 97.641 21.4065C97.6666 21.5353 97.6666 21.6902 97.6666 22C97.6666 22.3098 97.6666 22.4646 97.641 22.5934C97.5358 23.1224 97.1224 23.5358 96.5934 23.641C96.4646 23.6667 96.3098 23.6667 96 23.6667H94.6666C94.3569 23.6667 94.202 23.6667 94.0732 23.641C93.5443 23.5358 93.1308 23.1224 93.0256 22.5934C93 22.4646 93 22.3098 93 22Z" stroke="#868686" style="stroke:#868686;stroke:color(display-p3 0.5274 0.5274 0.5274);stroke-opacity:1;" stroke-width="1.33333" stroke-linecap="round" stroke-linejoin="round"/>
</g>
<defs>
<filter id="filter0_dd_994_211" x="0.296966" y="0.455409" width="117.406" height="48.8814" filterUnits="userSpaceOnUse" color-interpolation-filters="sRGB">
<feFlood flood-opacity="0" result="BackgroundImageFix"/>
<feColorMatrix in="SourceAlpha" type="matrix" values="0 0 0 0 0 0 0 0 0 0 0 0 0 0 0 0 0 0 127 0" result="hardAlpha"/>
<feMorphology radius="2.31689" operator="erode" in="SourceAlpha" result="effect1_dropShadow_994_211"/>
<feOffset dy="4.63377"/>
<feGaussianBlur stdDeviation="2.50996"/>
<feComposite in2="hardAlpha" operator="out"/>
<feColorMatrix type="matrix" values="0 0 0 0 0 0 0 0 0 0 0 0 0 0 0 0 0 0 0.1 0"/>
<feBlend mode="normal" in2="BackgroundImageFix" result="effect1_dropShadow_994_211"/>
<feColorMatrix in="SourceAlpha" type="matrix" values="0 0 0 0 0 0 0 0 0 0 0 0 0 0 0 0 0 0 127 0" result="hardAlpha"/>
<feMorphology radius="1.15844" operator="dilate" in="SourceAlpha" result="effect2_dropShadow_994_211"/>
<feOffset/>
<feGaussianBlur stdDeviation="0.193074"/>
<feComposite in2="hardAlpha" operator="out"/>
<feColorMatrix type="matrix" values="0 0 0 0 0 0 0 0 0 0 0 0 0 0 0 0 0 0 0.05 0"/>
<feBlend mode="normal" in2="effect1_dropShadow_994_211" result="effect2_dropShadow_994_211"/>
<feBlend mode="normal" in="SourceGraphic" in2="effect2_dropShadow_994_211" result="shape"/>
</filter>
<linearGradient id="paint0_linear_994_211" x1="59" y1="2" x2="59" y2="42" gradientUnits="userSpaceOnUse">
<stop stop-color="#F4F4F4" style="stop-color:#F4F4F4;stop-color:color(display-p3 0.9569 0.9569 0.9569);stop-opacity:1;"/>
<stop offset="1" stop-color="#FEFEFE" style="stop-color:#FEFEFE;stop-color:color(display-p3 0.9961 0.9961 0.9961);stop-opacity:1;"/>
</linearGradient>
<linearGradient id="paint1_linear_994_211" x1="59" y1="2" x2="59" y2="42" gradientUnits="userSpaceOnUse">
<stop stop-color="white" style="stop-color:white;stop-opacity:1;"/>
<stop offset="1" stop-color="#F5F5F5" style="stop-color:#F5F5F5;stop-color:color(display-p3 0.9608 0.9608 0.9608);stop-opacity:1;"/>
</linearGradient>
</defs>
</svg>
