<svg width="16" height="16" viewBox="0 0 16 16" fill="none" xmlns="http://www.w3.org/2000/svg">
<path d="M3.33301 9.99967C2.71175 9.99967 2.40112 9.99967 2.1561 9.89818C1.82939 9.76286 1.56983 9.50329 1.4345 9.17659C1.33301 8.93156 1.33301 8.62093 1.33301 7.99967V3.46634C1.33301 2.7196 1.33301 2.34624 1.47833 2.06102C1.60616 1.81014 1.81014 1.60616 2.06102 1.47833C2.34624 1.33301 2.7196 1.33301 3.46634 1.33301H7.99967C8.62093 1.33301 8.93156 1.33301 9.17659 1.4345C9.50329 1.56983 9.76286 1.82939 9.89818 2.1561C9.99967 2.40112 9.99967 2.71175 9.99967 3.33301M8.13301 14.6663H12.533C13.2797 14.6663 13.6531 14.6663 13.9383 14.521C14.1892 14.3932 14.3932 14.1892 14.521 13.9383C14.6663 13.6531 14.6663 13.2797 14.6663 12.533V8.13301C14.6663 7.38627 14.6663 7.0129 14.521 6.72769C14.3932 6.4768 14.1892 6.27283 13.9383 6.145C13.6531 5.99967 13.2797 5.99967 12.533 5.99967H8.13301C7.38627 5.99967 7.0129 5.99967 6.72769 6.145C6.4768 6.27283 6.27283 6.4768 6.145 6.72769C5.99967 7.0129 5.99967 7.38627 5.99967 8.13301V12.533C5.99967 13.2797 5.99967 13.6531 6.145 13.9383C6.27283 14.1892 6.4768 14.3932 6.72769 14.521C7.0129 14.6663 7.38627 14.6663 8.13301 14.6663Z" stroke="#868686" style="stroke:#868686;stroke:color(display-p3 0.5274 0.5274 0.5274);stroke-opacity:1;" stroke-width="1.33333" stroke-linecap="round" stroke-linejoin="round"/>
</svg>
