<svg width="18" height="20" viewBox="0 0 18 20" fill="none" xmlns="http://www.w3.org/2000/svg">
<path d="M7.49097 17.2453L8.71844 17.9272C8.95478 18.0585 9.07295 18.1241 9.19809 18.1499C9.30885 18.1727 9.42309 18.1727 9.53384 18.1499C9.65899 18.1241 9.77716 18.0585 10.0135 17.9272L11.241 17.2453M3.74097 15.1619L2.55178 14.5013C2.30218 14.3626 2.17737 14.2933 2.08649 14.1947C2.0061 14.1074 1.94526 14.004 1.90804 13.8914C1.86597 13.764 1.86597 13.6213 1.86597 13.3357V12.0369M1.86597 7.87027V6.57148C1.86597 6.28594 1.86597 6.14317 1.90804 6.01584C1.94526 5.90319 2.0061 5.79979 2.08649 5.71255C2.17737 5.61394 2.30217 5.5446 2.55178 5.40593L3.74097 4.74527M7.49097 2.66194L8.71844 1.98C8.95478 1.84871 9.07295 1.78306 9.19809 1.75732C9.30885 1.73454 9.42309 1.73454 9.53384 1.75732C9.65899 1.78306 9.77716 1.84871 10.0135 1.98L11.241 2.66194M14.991 4.74527L16.1802 5.40593C16.4298 5.5446 16.5546 5.61393 16.6454 5.71255C16.7258 5.79979 16.7867 5.90319 16.8239 6.01584C16.866 6.14317 16.866 6.28594 16.866 6.57147V7.87027M16.866 12.0369V13.3357C16.866 13.6213 16.866 13.764 16.8239 13.8914C16.7867 14.004 16.7258 14.1074 16.6454 14.1947C16.5546 14.2933 16.4298 14.3626 16.1802 14.5013L14.991 15.1619M7.49097 8.91194L9.36597 9.9536M9.36597 9.9536L11.241 8.91194M9.36597 9.9536V12.0369M1.86597 5.78694L3.74097 6.8286M14.991 6.8286L16.866 5.78694M9.36597 16.2036V18.2869" stroke="#1246FF" style="stroke:#1246FF;stroke:color(display-p3 0.0706 0.2745 1.0000);stroke-opacity:1;" stroke-width="2" stroke-linecap="round" stroke-linejoin="round"/>
</svg>
