<svg width="20" height="18" viewBox="0 0 20 18" fill="none" xmlns="http://www.w3.org/2000/svg">
<path d="M10.3658 7.15449V10.4878M10.3658 13.8212H10.3742M9.21194 2.89759L2.35787 14.7364C1.9777 15.3931 1.78761 15.7214 1.81571 15.9909C1.84021 16.2259 1.96336 16.4395 2.15449 16.5785C2.37362 16.7378 2.753 16.7378 3.51177 16.7378H17.2199C17.9787 16.7378 18.3581 16.7378 18.5772 16.5785C18.7683 16.4395 18.8915 16.2259 18.916 15.9909C18.9441 15.7214 18.754 15.3931 18.3738 14.7364L11.5197 2.89759C11.1409 2.24329 10.9515 1.91614 10.7044 1.80626C10.4889 1.71041 10.2428 1.71041 10.0273 1.80626C9.78015 1.91614 9.59075 2.24329 9.21194 2.89759Z" stroke="#1246FF" style="stroke:#1246FF;stroke:color(display-p3 0.0706 0.2745 1.0000);stroke-opacity:1;" stroke-width="2" stroke-linecap="round" stroke-linejoin="round"/>
</svg>
