<svg width="32" height="32" viewBox="0 0 32 32" fill="none" xmlns="http://www.w3.org/2000/svg">
<rect width="32" height="32" rx="8" fill="#F5F5F5" style="fill:#F5F5F5;fill:color(display-p3 0.9600 0.9600 0.9600);fill-opacity:1;"/>
<path d="M17.2789 9.77406V12.4176C17.2789 12.776 17.2789 12.9553 17.3487 13.0922C17.41 13.2126 17.5079 13.3105 17.6284 13.3719C17.7653 13.4416 17.9445 13.4416 18.3029 13.4416H20.9465M17.2789 19.2016H13.4389M18.5589 16.6416H13.4389M21.1189 14.714V19.3296C21.1189 20.4049 21.1189 20.9425 20.9096 21.3532C20.7256 21.7145 20.4318 22.0082 20.0706 22.1923C19.6599 22.4016 19.1222 22.4016 18.0469 22.4016H13.9509C12.8756 22.4016 12.338 22.4016 11.9272 22.1923C11.566 22.0082 11.2723 21.7145 11.0882 21.3532C10.8789 20.9425 10.8789 20.4049 10.8789 19.3296V12.6736C10.8789 11.5983 10.8789 11.0606 11.0882 10.6499C11.2723 10.2886 11.566 9.99491 11.9272 9.81083C12.338 9.60156 12.8756 9.60156 13.9509 9.60156H16.0064C16.4761 9.60156 16.7109 9.60156 16.9318 9.65461C17.1277 9.70165 17.315 9.77922 17.4868 9.88449C17.6806 10.0032 17.8466 10.1693 18.1787 10.5013L20.2191 12.5418C20.5512 12.8739 20.7172 13.0399 20.836 13.2337C20.9412 13.4054 21.0188 13.5927 21.0659 13.7886C21.1189 14.0096 21.1189 14.2444 21.1189 14.714Z" stroke="#868686" style="stroke:#868686;stroke:color(display-p3 0.5274 0.5274 0.5274);stroke-opacity:1;" stroke-width="1.28" stroke-linecap="round" stroke-linejoin="round"/>
</svg>
