<svg width="17" height="19" viewBox="0 0 17 19" fill="none" xmlns="http://www.w3.org/2000/svg">
<path d="M3.78288 16.0332H2.53288C1.6124 16.0332 0.866211 15.287 0.866211 14.3665V2.69987C0.866211 1.7794 1.6124 1.0332 2.53288 1.0332H14.1995C15.12 1.0332 15.8662 1.7794 15.8662 2.69987V14.3665C15.8662 15.287 15.12 16.0332 14.1995 16.0332H12.9495M8.36621 15.1999C9.74692 15.1999 10.8662 14.0806 10.8662 12.6999C10.8662 11.3192 9.74692 10.1999 8.36621 10.1999C6.9855 10.1999 5.86621 11.3192 5.86621 12.6999C5.86621 14.0806 6.9855 15.1999 8.36621 15.1999ZM8.36621 15.1999L8.38408 15.1997L5.72344 17.8603L3.36641 15.5033L5.88259 12.9871M8.36621 15.1999L11.0269 17.8603L13.3839 15.5033L10.8677 12.9871M5.86621 4.36654H10.8662M4.19954 7.2832H12.5329" stroke="#1246FF" style="stroke:#1246FF;stroke:color(display-p3 0.0706 0.2745 1.0000);stroke-opacity:1;" stroke-width="1.38889" stroke-linecap="round" stroke-linejoin="round"/>
</svg>
