<svg width="40" height="34" viewBox="0 0 40 34" fill="none" xmlns="http://www.w3.org/2000/svg">
<path fill-rule="evenodd" clip-rule="evenodd" d="M20 0.880371C27.3493 0.880371 33.5499 5.79878 35.4898 12.5236C37.9912 12.5855 40 14.6327 40 17.149C40 19.6954 37.943 21.7613 35.4001 21.7758C33.3646 28.3465 27.2397 33.1192 20 33.1192C12.7603 33.1192 6.63539 28.3465 4.5999 21.7758C2.05696 21.7613 0 19.6954 0 17.149C0 14.6327 2.00877 12.5855 4.51021 12.5236C6.45006 5.79878 12.6507 0.880371 20 0.880371ZM5.71793 12.6515C7.57943 6.52945 13.2694 2.0744 20 2.0744C26.7306 2.0744 32.4206 6.52945 34.2821 12.6515C32.2532 13.142 30.7463 14.9695 30.7463 17.149C30.7463 19.2972 32.2103 21.1035 34.195 21.6246C32.2483 27.6038 26.6288 31.9251 20 31.9251C13.3712 31.9251 7.75174 27.6038 5.80498 21.6246C7.78971 21.1035 9.25373 19.2972 9.25373 17.149C9.25373 14.9695 7.74675 13.142 5.71793 12.6515Z" fill="#1246FF" style="fill:#1246FF;fill:color(display-p3 0.0706 0.2745 1.0000);fill-opacity:1;"/>
</svg>
