<svg width="21" height="21" viewBox="0 0 21 21" fill="none" xmlns="http://www.w3.org/2000/svg">
<path d="M14.1162 12.6206H14.1245M2.86621 5.12055V16.7872C2.86621 17.7077 3.6124 18.4539 4.53288 18.4539H16.1995C17.12 18.4539 17.8662 17.7077 17.8662 16.7872V8.45389C17.8662 7.53341 17.12 6.78722 16.1995 6.78722L4.53288 6.78722C3.6124 6.78722 2.86621 6.04103 2.86621 5.12055ZM2.86621 5.12055C2.86621 4.20008 3.6124 3.45389 4.53288 3.45389H14.5329M14.5329 12.6206C14.5329 12.8507 14.3463 13.0372 14.1162 13.0372C13.8861 13.0372 13.6995 12.8507 13.6995 12.6206C13.6995 12.3904 13.8861 12.2039 14.1162 12.2039C14.3463 12.2039 14.5329 12.3904 14.5329 12.6206Z" stroke="#1246FF" style="stroke:#1246FF;stroke:color(display-p3 0.0706 0.2745 1.0000);stroke-opacity:1;" stroke-width="2" stroke-linecap="round" stroke-linejoin="round"/>
</svg>
