<svg width="12" height="14" viewBox="0 0 12 14" fill="none" xmlns="http://www.w3.org/2000/svg">
<path d="M11.3332 12.9707C11.3332 12.0403 11.3332 11.5751 11.2183 11.1966C10.9598 10.3443 10.2929 9.67739 9.4406 9.41886C9.06207 9.30403 8.59688 9.30403 7.6665 9.30403H4.33317C3.4028 9.30403 2.93761 9.30403 2.55908 9.41886C1.70681 9.67739 1.03986 10.3443 0.78133 11.1966C0.666504 11.5751 0.666504 12.0403 0.666504 12.9707M8.99984 3.9707C8.99984 5.62756 7.65669 6.9707 5.99984 6.9707C4.34298 6.9707 2.99984 5.62756 2.99984 3.9707C2.99984 2.31385 4.34298 0.970703 5.99984 0.970703C7.65669 0.970703 8.99984 2.31385 8.99984 3.9707Z" stroke="#868686" stroke-width="1.11111" stroke-linecap="round" stroke-linejoin="round"/>
</svg>
