<svg width="21" height="22" viewBox="0 0 21 22" fill="none" xmlns="http://www.w3.org/2000/svg">
<path d="M7.30603 14.3139L7.30782 14.3129V14.3144L7.30603 14.3139Z" fill="#1246FF" style="fill:#1246FF;fill:color(display-p3 0.0706 0.2745 1.0000);fill-opacity:1;"/>
<path fill-rule="evenodd" clip-rule="evenodd" d="M10.366 20.9512C15.8888 20.9512 20.366 16.474 20.366 10.9512C20.366 5.42832 15.8888 0.951172 10.366 0.951172C4.84312 0.951172 0.365967 5.42832 0.365967 10.9512C0.365967 16.474 4.84312 20.9512 10.366 20.9512ZM18.0611 16.598C19.2234 15.0167 19.91 13.0641 19.91 10.9512C19.91 9.95493 19.7574 8.99434 19.4742 8.09151C19.4574 8.09252 19.4399 8.09665 19.4229 8.10065C19.4138 8.10279 19.4049 8.1049 19.3963 8.10647C19.306 8.12314 19.2171 8.14722 19.1281 8.17132C19.1003 8.17886 19.0725 8.18639 19.0446 8.19371C18.8541 8.24341 18.6638 8.29338 18.4735 8.34334C18.1237 8.43515 17.774 8.52696 17.4236 8.61711C16.9689 8.73403 16.514 8.8493 16.0486 8.96722C15.8497 9.0176 15.649 9.06847 15.4455 9.12015C15.4522 9.16476 15.4595 9.20992 15.4669 9.25549C15.4837 9.35864 15.5008 9.46397 15.5118 9.57C15.5209 9.65692 15.5302 9.74385 15.5395 9.83078C15.576 10.1712 15.6125 10.5119 15.6355 10.8533C15.6522 11.1037 15.6626 11.3547 15.673 11.6057C15.6888 11.987 15.7046 12.3684 15.7428 12.7475C15.7951 13.2676 15.9063 13.7809 16.1835 14.2423C16.3382 14.5001 16.554 14.6867 16.8008 14.8469C17.1322 15.062 17.4461 15.2979 17.6621 15.6265C17.9259 16.0068 18.0308 16.3773 18.0611 16.598ZM17.5237 17.2581C17.5232 17.2608 17.5227 17.2635 17.5222 17.2662C17.1102 17.7328 16.6532 18.1587 16.1582 18.5373C16.1616 18.5145 16.1651 18.4874 16.1687 18.4569C16.17 18.4499 16.1714 18.4429 16.1729 18.436C16.1836 18.3862 16.1872 18.3384 16.1838 18.2935C16.1958 18.1277 16.2011 17.9187 16.1833 17.7159C16.1864 17.7034 16.1881 17.693 16.1868 17.6831C16.14 17.3162 15.9969 16.987 15.7792 16.6916C15.4534 16.249 15.0307 15.9074 14.608 15.5659C14.5741 15.5385 14.5402 15.5111 14.5063 15.4837C13.8868 14.9815 13.2884 14.456 12.8647 13.7697C12.7539 13.5905 12.6749 13.3912 12.5962 13.1928C12.5753 13.1401 12.5545 13.0875 12.533 13.0353C12.5194 13.0019 12.5504 12.9314 12.5832 12.8999C12.6961 12.8332 12.8009 12.754 12.8955 12.6643C13.0396 12.7638 13.1841 12.8628 13.3285 12.9618C13.6755 13.1995 14.0224 13.4372 14.3634 13.6825C14.5253 13.799 14.682 13.923 14.8387 14.047C15.0161 14.1875 15.1936 14.3279 15.3786 14.4575C15.5475 14.5759 15.7241 14.6834 15.9006 14.7908C16.0749 14.8969 16.2492 15.003 16.416 15.1195C16.8713 15.4378 17.2118 15.8521 17.385 16.3922C17.3908 16.4101 17.3983 16.4275 17.407 16.4445C17.4277 16.506 17.4524 16.5979 17.4738 16.7157C17.4726 16.7203 17.4722 16.7248 17.4726 16.7293C17.4745 16.7498 17.4795 16.7701 17.4862 16.7903C17.5064 16.9215 17.5215 17.079 17.5237 17.2581ZM15.6527 18.0626L15.6561 18.0612L15.6547 18.0636C15.6497 18.145 15.6405 18.2576 15.6269 18.3782L15.6227 18.3812L15.6257 18.3887C15.6153 18.48 15.6024 18.5755 15.587 18.6651C15.5837 18.6809 15.5805 18.6968 15.5773 18.7126C15.5608 18.7947 15.5442 18.8768 15.5136 18.9533C15.5067 18.9704 15.4986 18.9878 15.4892 19.005C14.9849 19.3265 14.4482 19.602 13.8853 19.8254C13.9057 19.7798 13.9267 19.7345 13.9475 19.6894C14.0175 19.5381 14.0866 19.3885 14.1333 19.2323C14.2485 18.8466 14.2261 18.4539 14.1212 18.0657C13.9764 17.5299 13.6707 17.0812 13.3644 16.6316C13.3491 16.6092 13.3337 16.5867 13.3185 16.5642C13.2497 16.4632 13.1805 16.3624 13.1113 16.2615C12.8374 15.8624 12.5633 15.463 12.3136 15.0493C11.9753 14.4888 11.8628 13.8588 11.8537 13.2095C11.8533 13.1921 11.8565 13.1746 11.8594 13.159C11.8599 13.1562 11.8604 13.1536 11.8609 13.1509C11.8615 13.1474 11.8621 13.1441 11.8625 13.1408L11.924 13.1257C12.0564 13.1089 12.1842 13.0771 12.3055 13.0321L12.337 13.0244C12.3805 13.1393 12.4201 13.2541 12.4594 13.3678C12.546 13.6181 12.6305 13.8626 12.7489 14.0895C13.0324 14.6332 13.4485 15.08 13.9093 15.484C13.9788 15.5448 14.0484 15.6054 14.1181 15.666C14.389 15.9014 14.66 16.137 14.9157 16.3879C15.3753 16.8384 15.6297 17.3904 15.6479 18.0642L15.6527 18.0626ZM12.9558 20.1397C12.9606 20.1359 12.9654 20.132 12.9701 20.1281C13.1397 19.9852 13.2859 19.8059 13.4115 19.6211C13.82 19.0195 13.8984 18.3797 13.5537 17.7235C13.4237 17.4756 13.2649 17.2419 13.1068 17.0094C13.0876 16.981 13.0683 16.9527 13.0492 16.9244C12.9651 16.8003 12.8794 16.6773 12.7937 16.5542C12.4415 16.0486 12.0892 15.543 11.8531 14.9664C11.644 14.4563 11.5139 13.9311 11.547 13.3749C11.55 13.3227 11.555 13.2707 11.5603 13.2162C11.5628 13.1896 11.5654 13.1625 11.5679 13.1344C10.6744 13.0653 9.97083 12.3184 9.97083 11.4071C9.97083 11.3573 9.97293 11.308 9.97705 11.2593C9.96437 11.2326 9.93915 11.2116 9.88958 11.1989C9.25432 11.0357 8.61693 10.8934 7.96253 10.8208C7.29049 10.746 6.62058 10.7162 5.94733 10.7761L5.94351 10.7764C5.80316 10.7889 5.73307 10.7951 5.69047 10.7638C5.64797 10.7327 5.63282 10.6642 5.60256 10.5275C5.59639 10.4993 5.58803 10.4706 5.57988 10.4429C5.57237 10.4173 5.56486 10.3917 5.55888 10.3657C5.5484 10.3197 5.53791 10.2736 5.52742 10.2276L5.50365 10.1232C5.38885 9.61927 5.27403 9.11522 5.16192 8.61073C5.1337 8.48363 5.10993 8.35552 5.08578 8.22532C5.07482 8.16625 5.06376 8.10663 5.05219 8.04659C5.07011 8.04286 5.08529 8.03917 5.0987 8.0359C5.12351 8.02987 5.14227 8.0253 5.16101 8.02471L5.20557 8.02349C5.41351 8.0178 5.62144 8.01211 5.82909 8.01012L5.83874 8.01003C6.08571 8.00773 6.0893 8.00769 6.18533 7.77182C6.44672 7.12896 6.85523 6.59371 7.38411 6.15146C7.4911 6.06179 7.47803 6.00404 7.41542 5.9089C6.74976 4.901 6.08563 3.89219 5.42362 2.88216C5.40264 2.85012 5.38353 2.83051 5.36292 2.82194C2.63807 4.5025 0.821894 7.51474 0.821894 10.9512C0.821894 15.1364 3.51581 18.6925 7.26425 19.9799C7.27644 19.9765 7.28788 19.9722 7.29809 19.967C8.00083 19.6031 8.637 19.149 9.15037 18.5402C9.41876 18.222 9.62757 17.8642 9.71025 17.4515C9.80964 16.9548 9.69961 16.4931 9.44216 16.0591L9.43152 16.0411C9.23315 15.7061 9.23298 15.7058 8.8832 15.8931C8.87864 15.8955 8.87408 15.8977 8.86952 15.8998C8.47469 16.0843 8.07286 16.2484 7.62423 16.2129C7.25219 16.1834 6.88867 15.9724 6.9218 15.4974C6.93973 15.2381 6.86709 14.9885 6.7297 14.7627C6.67073 14.6657 6.62484 14.573 6.69475 14.4545C6.71602 14.4183 6.69566 14.3384 6.6677 14.2958C6.66628 14.2937 6.66486 14.2915 6.66345 14.2894C6.66146 14.2864 6.65948 14.2834 6.65751 14.2804L6.65484 14.2764C6.58717 14.1747 6.52882 14.0869 6.6066 13.9454C6.6454 13.8751 6.64787 13.7835 6.65029 13.6937C6.6511 13.6638 6.6519 13.6342 6.65402 13.6056C6.66283 13.4855 6.62149 13.4299 6.48046 13.4302C6.2063 13.4305 5.9838 13.3265 5.86861 13.0505C5.83061 12.96 5.85493 12.9089 5.90842 12.836C5.91526 12.8266 5.9221 12.8173 5.92894 12.8079L5.94915 12.7804C6.08928 12.5893 6.2304 12.397 6.34095 12.1895C6.5449 11.8065 6.62636 11.3831 6.66435 10.9539C6.67555 10.8277 6.74179 10.8346 6.81182 10.8419C6.82731 10.8435 6.84297 10.8452 6.85827 10.8454C6.9528 10.8466 6.97803 10.8958 6.9607 10.9855C6.94444 11.0708 6.93057 11.1566 6.9167 11.2424C6.8943 11.381 6.87191 11.5196 6.83943 11.6557C6.73061 12.1138 6.5604 12.5466 6.24915 12.9095C6.15463 13.0198 6.25037 13.0855 6.31146 13.1028C6.40416 13.1293 6.50135 13.1395 6.59876 13.1497C6.64923 13.155 6.69976 13.1603 6.74976 13.1679C6.79566 13.1749 6.87742 13.1916 6.87864 13.2092C6.882 13.251 6.88564 13.2928 6.88928 13.3347C6.90702 13.5387 6.92483 13.7435 6.91146 13.946C6.89991 14.1205 6.90782 14.1946 7.07621 14.2554C7.11922 14.2709 7.16432 14.2811 7.21714 14.2931C7.24445 14.2992 7.27381 14.3058 7.30603 14.3139C7.27627 14.3317 7.24894 14.3481 7.2232 14.3636C7.17166 14.3946 7.12574 14.4222 7.08016 14.4487C6.96526 14.5156 6.95888 14.5943 7.02241 14.711C7.15949 14.9633 7.21997 15.2375 7.2139 15.5259C7.20964 15.722 7.2683 15.8259 7.45067 15.8776C7.58411 15.9153 7.73152 15.942 7.86739 15.9271C8.19505 15.8913 8.50265 15.7758 8.79262 15.6189C9.3066 15.3408 9.77165 14.9967 10.1856 14.5834C10.1944 14.5746 10.2101 14.5725 10.2293 14.5699C10.2392 14.5686 10.2502 14.5671 10.2616 14.5645C10.1321 15.0192 9.8066 15.2977 9.4607 15.5627C9.47933 15.5884 9.4967 15.6126 9.51335 15.6357C9.541 15.6742 9.56663 15.7098 9.59262 15.7451C10.2236 16.601 10.237 17.5633 9.64125 18.4414C9.26587 18.9946 8.76192 19.4053 8.21602 19.7733C8.15465 19.8147 8.09355 19.8565 8.03245 19.8984C8.00186 19.9193 7.97127 19.9403 7.94064 19.9612C7.94703 19.9785 7.95371 19.9958 7.9601 20.0135C8.06143 19.9969 8.16346 19.9829 8.2655 19.9689C8.49303 19.9376 8.72077 19.9063 8.94064 19.8469C9.60356 19.6679 10.2133 19.3621 10.7917 18.9928C10.8424 18.9604 10.8931 18.9279 10.9438 18.8953C11.2081 18.7257 11.4728 18.5557 11.7479 18.4053C12.237 18.1378 12.7701 17.9901 13.3151 17.8819C13.5531 17.8347 13.6005 17.8633 13.6215 18.0803C13.4882 18.119 13.355 18.1561 13.2222 18.193C12.9216 18.2768 12.6226 18.36 12.3297 18.4591C11.8784 18.6115 11.4846 18.8727 11.0907 19.1339C11.025 19.1774 10.9594 19.2209 10.8935 19.2639C10.2087 19.711 9.48958 20.0867 8.67286 20.2366C8.60215 20.2495 8.53212 20.2656 8.44909 20.2847C8.43578 20.2877 8.42173 20.2909 8.4077 20.2942C9.03977 20.426 9.69477 20.4952 10.366 20.4952C11.2636 20.4952 12.1322 20.3713 12.9558 20.1397ZM6.83983 4.34437L6.86494 4.38244C7.17656 4.85492 7.4857 5.32362 7.79232 5.78854C7.89099 5.73743 7.98786 5.68664 8.08352 5.63677C8.32526 5.51076 8.55939 5.38872 8.79566 5.27091C8.87712 5.23018 8.91694 5.18824 8.88441 5.09735C8.80994 4.88915 8.73578 4.68094 8.66283 4.47213C8.52696 4.08337 8.3914 3.69462 8.25706 3.30526C8.0914 2.82562 7.92575 2.34599 7.76405 1.86514C7.75048 1.82472 7.73612 1.79591 7.7153 1.78C7.00745 1.98422 6.33342 2.26816 5.70353 2.62149C6.08588 3.20126 6.46466 3.77555 6.83983 4.34437ZM8.73541 3.50814L8.76622 3.59762C8.93441 4.08597 9.10177 4.57189 9.268 5.0545C9.60489 4.9851 9.93056 4.91795 10.2605 4.84993L10.5862 4.78276C10.5862 4.77102 10.5863 4.75776 10.5864 4.74344C10.5866 4.71107 10.5869 4.67326 10.5862 4.63535C10.5689 3.86665 10.5516 3.09796 10.534 2.32896C10.5321 2.2479 10.5299 2.16681 10.5277 2.08571C10.5225 1.89374 10.5173 1.7017 10.516 1.50982C10.5157 1.46529 10.5093 1.43195 10.4949 1.40795C10.452 1.40738 10.409 1.4071 10.366 1.4071C9.58684 1.4071 8.82951 1.50046 8.10457 1.6766C8.31574 2.28963 8.5262 2.90072 8.73541 3.50814ZM10.8853 1.42099C10.899 1.974 10.9126 2.52194 10.9261 3.06701L10.929 3.1862C10.9424 3.7247 10.9556 4.26054 10.9689 4.79583C11.0399 4.80133 11.1083 4.8053 11.1748 4.80916C11.3177 4.81745 11.4517 4.82522 11.5835 4.84659C11.8264 4.88611 12.0668 4.94507 12.306 5.00434C12.3878 5.02471 12.4218 5.00708 12.447 4.92805C12.6045 4.43596 12.7637 3.94416 12.9267 3.45358C13.0404 3.11138 13.1562 2.76983 13.2743 2.42178L13.2753 2.41889C13.3317 2.25267 13.3886 2.08496 13.446 1.91499C12.6359 1.63896 11.7768 1.46879 10.8853 1.42099ZM13.8024 2.04446C13.5552 2.78766 13.311 3.52227 13.0692 4.24954L13.0482 4.3129C12.9551 4.59277 12.8625 4.87155 12.7701 5.14933C12.9356 5.26057 13.0984 5.36985 13.2615 5.47932L13.2691 5.48443C13.455 5.60926 13.6414 5.73439 13.8327 5.86301C14.1761 5.51551 14.5221 5.16527 14.8702 4.81302L14.8776 4.80549C15.3286 4.34905 15.783 3.88923 16.2391 3.4276C15.5054 2.85403 14.6856 2.38545 13.8024 2.04446ZM16.5714 3.69962C15.8994 4.3519 15.2316 4.99982 14.5676 5.64398L14.0762 6.12076C14.309 6.44994 14.5215 6.75024 14.7413 7.06058C15.272 6.77336 15.8025 6.48635 16.3341 6.19872L16.3787 6.1746C16.9306 5.87597 17.4839 5.57665 18.04 5.27571C17.611 4.6966 17.118 4.16775 16.5714 3.69962ZM18.2674 5.59636C18.2464 5.59999 18.222 5.60991 18.1926 5.62623C17.8421 5.82042 17.4892 6.01043 17.1363 6.20039C16.9596 6.29554 16.7827 6.39076 16.6063 6.48641C16.4254 6.58449 16.2448 6.68299 16.0641 6.78148C15.709 6.97508 15.354 7.16867 14.9972 7.35906C14.9236 7.39826 14.9023 7.4244 14.9321 7.50708C15.0656 7.87516 15.1978 8.24355 15.3163 8.6165C15.3549 8.73778 15.406 8.74507 15.5136 8.71711C15.867 8.62567 16.2211 8.53688 16.5752 8.44811C16.8555 8.37782 17.1358 8.30754 17.4157 8.23596C17.6215 8.18338 17.8265 8.12747 18.0314 8.07155C18.1712 8.03341 18.3112 7.99524 18.4513 7.95814C18.6654 7.90143 18.8798 7.8462 19.1041 7.78841C19.185 7.7676 19.2671 7.74644 19.3509 7.72477C19.0785 6.96619 18.7127 6.2521 18.2674 5.59636ZM11.0784 9.79073C10.6159 9.96967 10.2494 10.3414 10.0775 10.8073C10.0307 10.8391 9.97128 10.836 9.88745 10.8171C9.33274 10.6916 8.7759 10.5752 8.21694 10.4703C7.62374 10.3589 7.02418 10.367 6.42501 10.3751C6.29538 10.3768 6.16561 10.3786 6.03608 10.3791C6.02038 10.3791 6.00456 10.3773 5.9857 10.3751C5.97498 10.3738 5.96328 10.3724 5.95006 10.3712C5.87027 10.0109 5.79047 9.65108 5.70997 9.28813L5.70777 9.2782C5.64212 8.98221 5.576 8.68409 5.50903 8.38185C7.49016 8.40152 9.32552 8.87594 11.0784 9.79073ZM11.5599 9.68043C11.4785 9.65273 11.4069 9.60729 11.3315 9.55875C10.5403 9.05024 9.68806 8.67669 8.7838 8.42228C8.23487 8.26787 7.67955 8.14386 7.10964 8.09462C6.97997 8.08343 6.85045 8.0683 6.70933 8.0518C6.64337 8.04409 6.57487 8.03609 6.50265 8.02805C6.5183 7.98772 6.53251 7.94838 6.54637 7.91003C6.57586 7.82846 6.60375 7.75127 6.64034 7.67851C6.97286 7.0162 7.47317 6.50526 8.08107 6.09188C8.54156 5.77851 9.03882 5.54082 9.57377 5.39097C10.2561 5.19979 10.944 5.12197 11.6552 5.25511C12.5966 5.4314 13.3574 5.88672 13.9531 6.62805C14.3565 7.12988 14.6513 7.6931 14.82 8.31194C14.9613 8.83109 15.0954 9.35723 15.1677 9.88884C15.2335 10.3712 15.2495 10.8613 15.2656 11.35C15.2681 11.4283 15.2707 11.5065 15.2735 11.5846C15.2984 12.2834 15.3577 12.9758 15.5561 13.6493C15.5874 13.7555 15.6315 13.8576 15.6755 13.9598C15.696 14.0074 15.7165 14.0551 15.7358 14.1031C15.7314 14.1069 15.727 14.1108 15.7227 14.1147C15.7184 14.1186 15.714 14.1224 15.7096 14.1262C15.0758 13.7047 14.4422 13.2828 13.8149 12.8657L13.1422 12.4183C13.156 12.3802 13.1703 12.3428 13.1848 12.306C13.3441 12.0439 13.4359 11.7362 13.4359 11.4071C13.4359 10.4503 12.6602 9.67458 11.7034 9.67458C11.655 9.67458 11.6072 9.67655 11.5599 9.68043ZM11.7034 12.7749C12.4588 12.7749 13.0711 12.1625 13.0711 11.4071C13.0711 10.6517 12.4588 10.0393 11.7034 10.0393C10.9479 10.0393 10.3356 10.6517 10.3356 11.4071C10.3356 12.1625 10.9479 12.7749 11.7034 12.7749Z" fill="#1246FF" style="fill:#1246FF;fill:color(display-p3 0.0706 0.2745 1.0000);fill-opacity:1;"/>
<path d="M7.30603 14.3139C7.27381 14.3058 7.24445 14.2992 7.21714 14.2931C7.16432 14.2811 7.11922 14.2709 7.07621 14.2554C6.90782 14.1946 6.89991 14.1205 6.91146 13.946C6.92483 13.7435 6.90702 13.5387 6.88928 13.3347C6.88564 13.2928 6.882 13.251 6.87864 13.2092C6.87742 13.1916 6.79566 13.1749 6.74976 13.1679C6.69976 13.1603 6.64923 13.155 6.59876 13.1497C6.50135 13.1395 6.40416 13.1293 6.31146 13.1028C6.25037 13.0855 6.15463 13.0198 6.24915 12.9095C6.5604 12.5466 6.73061 12.1138 6.83943 11.6557C6.87191 11.5196 6.8943 11.381 6.9167 11.2424C6.93057 11.1566 6.94444 11.0708 6.9607 10.9855C6.97803 10.8958 6.9528 10.8466 6.85827 10.8454C6.84297 10.8452 6.82731 10.8435 6.81182 10.8419C6.74179 10.8346 6.67555 10.8277 6.66435 10.9539C6.62636 11.3831 6.5449 11.8065 6.34095 12.1895C6.2304 12.397 6.08928 12.5893 5.94915 12.7804L5.92894 12.8079C5.9221 12.8173 5.91526 12.8266 5.90842 12.836C5.85493 12.9089 5.83061 12.96 5.86861 13.0505C5.9838 13.3265 6.2063 13.4305 6.48046 13.4302C6.62149 13.4299 6.66283 13.4855 6.65402 13.6056C6.6519 13.6342 6.6511 13.6638 6.65029 13.6937C6.64787 13.7835 6.6454 13.8751 6.6066 13.9454C6.52882 14.0869 6.58717 14.1747 6.65484 14.2764L6.65751 14.2804C6.65948 14.2834 6.66146 14.2864 6.66345 14.2894C6.66486 14.2915 6.66628 14.2937 6.6677 14.2958C6.69566 14.3384 6.71602 14.4183 6.69475 14.4545C6.62484 14.573 6.67073 14.6657 6.7297 14.7627C6.86709 14.9885 6.93973 15.2381 6.9218 15.4974C6.88867 15.9724 7.25219 16.1834 7.62423 16.2129C8.07286 16.2484 8.47469 16.0843 8.86952 15.8998C8.87408 15.8977 8.87864 15.8955 8.8832 15.8931C9.23298 15.7058 9.23315 15.7061 9.43152 16.0411L9.44216 16.0591C9.69961 16.4931 9.80964 16.9548 9.71025 17.4515C9.62757 17.8642 9.41876 18.222 9.15037 18.5402C8.637 19.149 8.00083 19.6031 7.29809 19.967C7.28788 19.9722 7.27644 19.9765 7.26425 19.9799C3.51581 18.6925 0.821894 15.1364 0.821894 10.9512C0.821894 7.51474 2.63807 4.5025 5.36292 2.82194C5.38353 2.83051 5.40264 2.85012 5.42362 2.88216C6.08563 3.89219 6.74976 4.901 7.41542 5.9089C7.47803 6.00404 7.4911 6.06179 7.38411 6.15146C6.85523 6.59371 6.44672 7.12897 6.18533 7.77182C6.0893 8.00769 6.08571 8.00773 5.83874 8.01003L5.82909 8.01012C5.62144 8.01211 5.41351 8.0178 5.20557 8.02349L5.16101 8.02471C5.14227 8.0253 5.12351 8.02987 5.0987 8.0359C5.08529 8.03917 5.07011 8.04286 5.05219 8.04659C5.06376 8.10663 5.07482 8.16625 5.08578 8.22532C5.10993 8.35552 5.1337 8.48363 5.16192 8.61073C5.27403 9.11522 5.38885 9.61927 5.50365 10.1232L5.52742 10.2276C5.53791 10.2736 5.5484 10.3197 5.55888 10.3657C5.56486 10.3917 5.57237 10.4173 5.57988 10.4429C5.58803 10.4706 5.59639 10.4993 5.60256 10.5275C5.63282 10.6642 5.64797 10.7327 5.69047 10.7638C5.73307 10.7951 5.80316 10.7889 5.94351 10.7764L5.94733 10.7761C6.62058 10.7162 7.29049 10.746 7.96253 10.8208C8.61693 10.8934 9.25432 11.0357 9.88958 11.1989C9.93915 11.2116 9.96437 11.2326 9.97705 11.2593C9.97293 11.308 9.97083 11.3573 9.97083 11.4071C9.97083 12.3184 10.6744 13.0653 11.5679 13.1344C11.5654 13.1625 11.5628 13.1896 11.5603 13.2162C11.555 13.2707 11.55 13.3227 11.547 13.3749C11.5139 13.9311 11.644 14.4563 11.8531 14.9664C12.0892 15.543 12.4415 16.0486 12.7937 16.5542C12.8794 16.6773 12.9651 16.8003 13.0492 16.9244C13.0683 16.9527 13.0876 16.981 13.1068 17.0094C13.2649 17.2419 13.4237 17.4756 13.5537 17.7235C13.8984 18.3797 13.82 19.0195 13.4115 19.6211C13.2859 19.8059 13.1397 19.9852 12.9701 20.1281C12.9654 20.132 12.9606 20.1359 12.9558 20.1397C12.1322 20.3713 11.2636 20.4952 10.366 20.4952C9.69477 20.4952 9.03977 20.426 8.4077 20.2942C8.42173 20.2909 8.43578 20.2877 8.44909 20.2847C8.53212 20.2656 8.60215 20.2495 8.67286 20.2366C9.48958 20.0867 10.2087 19.711 10.8935 19.2639C10.9594 19.2209 11.025 19.1774 11.0907 19.1339C11.4846 18.8727 11.8784 18.6115 12.3297 18.4591C12.6226 18.36 12.9216 18.2768 13.2222 18.193C13.355 18.1561 13.4882 18.119 13.6215 18.0803C13.6005 17.8633 13.5531 17.8347 13.3151 17.8819C12.7701 17.9901 12.237 18.1378 11.7479 18.4053C11.4728 18.5557 11.2081 18.7257 10.9438 18.8953C10.8931 18.9279 10.8424 18.9604 10.7917 18.9928C10.2133 19.3621 9.60356 19.6679 8.94064 19.8469C8.72077 19.9063 8.49303 19.9376 8.2655 19.9689C8.16346 19.9829 8.06143 19.9969 7.9601 20.0135C7.95371 19.9958 7.94703 19.9785 7.94064 19.9612C7.97127 19.9403 8.00186 19.9193 8.03245 19.8984C8.09355 19.8565 8.15465 19.8147 8.21602 19.7733C8.76192 19.4053 9.26587 18.9946 9.64125 18.4414C10.237 17.5633 10.2236 16.601 9.59262 15.7451C9.56663 15.7098 9.541 15.6742 9.51335 15.6357C9.4967 15.6126 9.47933 15.5884 9.4607 15.5627C9.8066 15.2977 10.1321 15.0192 10.2616 14.5645C10.2502 14.5671 10.2392 14.5686 10.2293 14.5699C10.2101 14.5725 10.1944 14.5746 10.1856 14.5834C9.77165 14.9967 9.3066 15.3408 8.79262 15.6189C8.50265 15.7758 8.19505 15.8913 7.86739 15.9271C7.73152 15.942 7.58411 15.9153 7.45067 15.8776C7.2683 15.8259 7.20964 15.722 7.2139 15.5259C7.21997 15.2375 7.15949 14.9633 7.02241 14.711C6.95888 14.5943 6.96526 14.5156 7.08016 14.4487C7.12574 14.4222 7.17166 14.3946 7.2232 14.3636C7.24894 14.3481 7.27627 14.3317 7.30603 14.3139ZM7.30603 14.3139L7.30782 14.3129V14.3144L7.30603 14.3139ZM19.91 10.9512C19.91 13.0641 19.2234 15.0167 18.0611 16.598C18.0308 16.3773 17.9259 16.0068 17.6621 15.6265C17.4461 15.2979 17.1322 15.062 16.8008 14.8469C16.554 14.6867 16.3382 14.5001 16.1835 14.2423C15.9063 13.7809 15.7951 13.2676 15.7428 12.7475C15.7046 12.3684 15.6888 11.987 15.673 11.6057C15.6626 11.3547 15.6522 11.1037 15.6355 10.8533C15.6125 10.5119 15.576 10.1712 15.5395 9.83078C15.5302 9.74385 15.5209 9.65692 15.5118 9.57C15.5008 9.46397 15.4837 9.35864 15.4669 9.25549C15.4595 9.20992 15.4522 9.16476 15.4455 9.12015C15.649 9.06847 15.8497 9.0176 16.0486 8.96722C16.514 8.8493 16.9689 8.73403 17.4236 8.61711C17.774 8.52696 18.1237 8.43515 18.4735 8.34334C18.6638 8.29338 18.8541 8.24341 19.0446 8.19371C19.0725 8.18639 19.1003 8.17886 19.1281 8.17132C19.2171 8.14722 19.306 8.12314 19.3963 8.10647C19.4049 8.1049 19.4138 8.10279 19.4229 8.10065C19.4399 8.09665 19.4574 8.09252 19.4742 8.09151C19.7574 8.99434 19.91 9.95493 19.91 10.9512ZM17.5237 17.2581C17.5232 17.2608 17.5227 17.2635 17.5222 17.2662C17.1102 17.7328 16.6532 18.1587 16.1582 18.5373C16.1616 18.5145 16.1651 18.4874 16.1687 18.4569C16.17 18.4499 16.1714 18.4429 16.1729 18.436C16.1836 18.3862 16.1872 18.3384 16.1838 18.2935C16.1958 18.1277 16.2011 17.9187 16.1833 17.7159C16.1864 17.7034 16.1881 17.693 16.1868 17.6831C16.14 17.3162 15.9969 16.987 15.7792 16.6916C15.4534 16.249 15.0307 15.9074 14.608 15.5659C14.5741 15.5385 14.5402 15.5111 14.5063 15.4837C13.8868 14.9815 13.2884 14.456 12.8647 13.7697C12.7539 13.5905 12.6749 13.3912 12.5962 13.1928C12.5753 13.1401 12.5545 13.0875 12.533 13.0353C12.5194 13.0019 12.5504 12.9314 12.5832 12.8999C12.6961 12.8332 12.8009 12.754 12.8955 12.6643C13.0396 12.7638 13.1841 12.8628 13.3285 12.9618C13.6755 13.1995 14.0224 13.4372 14.3634 13.6825C14.5253 13.799 14.682 13.923 14.8387 14.047C15.0161 14.1875 15.1936 14.3279 15.3786 14.4575C15.5475 14.5759 15.7241 14.6834 15.9006 14.7908C16.0749 14.8969 16.2492 15.003 16.416 15.1195C16.8713 15.4378 17.2118 15.8521 17.385 16.3922C17.3908 16.4101 17.3983 16.4275 17.407 16.4445C17.4277 16.506 17.4524 16.5979 17.4738 16.7157C17.4726 16.7203 17.4722 16.7248 17.4726 16.7293C17.4745 16.7498 17.4795 16.7701 17.4862 16.7903C17.5064 16.9215 17.5215 17.079 17.5237 17.2581ZM15.6561 18.0612L15.6527 18.0626L15.6479 18.0642C15.6297 17.3904 15.3753 16.8384 14.9157 16.3879C14.66 16.137 14.389 15.9014 14.1181 15.666C14.0484 15.6054 13.9788 15.5448 13.9093 15.484C13.4485 15.08 13.0324 14.6332 12.7489 14.0895C12.6305 13.8626 12.546 13.6181 12.4594 13.3678C12.4201 13.2541 12.3805 13.1393 12.337 13.0244L12.3055 13.0321C12.1842 13.0771 12.0564 13.1089 11.924 13.1257L11.8625 13.1408C11.8621 13.1441 11.8615 13.1474 11.8609 13.1509C11.8604 13.1536 11.8599 13.1562 11.8594 13.159C11.8565 13.1746 11.8533 13.1921 11.8537 13.2095C11.8628 13.8588 11.9753 14.4888 12.3136 15.0493C12.5633 15.463 12.8374 15.8624 13.1113 16.2615C13.1805 16.3624 13.2497 16.4632 13.3185 16.5642C13.3337 16.5867 13.3491 16.6092 13.3644 16.6316C13.6707 17.0812 13.9764 17.5299 14.1212 18.0657C14.2261 18.4539 14.2485 18.8466 14.1333 19.2323C14.0866 19.3885 14.0175 19.5381 13.9475 19.6894C13.9267 19.7345 13.9057 19.7798 13.8853 19.8254C14.4482 19.602 14.9849 19.3265 15.4892 19.005C15.4986 18.9878 15.5067 18.9704 15.5136 18.9533C15.5442 18.8768 15.5608 18.7947 15.5773 18.7126C15.5805 18.6968 15.5837 18.6809 15.587 18.6651C15.6024 18.5755 15.6153 18.48 15.6257 18.3887L15.6227 18.3812L15.6269 18.3782C15.6405 18.2576 15.6497 18.145 15.6547 18.0636L15.6561 18.0612ZM6.83983 4.34437C6.46466 3.77555 6.08588 3.20126 5.70353 2.62149C6.33342 2.26816 7.00745 1.98422 7.7153 1.78C7.73612 1.79591 7.75048 1.82472 7.76405 1.86514C7.92575 2.34599 8.0914 2.82562 8.25706 3.30526C8.3914 3.69462 8.52696 4.08337 8.66283 4.47213C8.73578 4.68094 8.80994 4.88915 8.88441 5.09735C8.91694 5.18824 8.87712 5.23018 8.79566 5.27091C8.55939 5.38872 8.32526 5.51076 8.08352 5.63677C7.98786 5.68664 7.89099 5.73743 7.79232 5.78854C7.4857 5.32362 7.17656 4.85492 6.86494 4.38244L6.83983 4.34437ZM8.73541 3.50814C8.5262 2.90072 8.31574 2.28963 8.10457 1.6766C8.82951 1.50046 9.58684 1.4071 10.366 1.4071C10.409 1.4071 10.452 1.40738 10.4949 1.40795C10.5093 1.43195 10.5157 1.46529 10.516 1.50982C10.5173 1.7017 10.5225 1.89374 10.5277 2.08571C10.5299 2.16681 10.5321 2.2479 10.534 2.32896C10.5516 3.09796 10.5689 3.86665 10.5862 4.63535C10.5869 4.67326 10.5866 4.71107 10.5864 4.74344C10.5863 4.75776 10.5862 4.77102 10.5862 4.78276L10.2605 4.84993C9.93056 4.91795 9.60489 4.9851 9.268 5.0545C9.10177 4.57189 8.93441 4.08597 8.76622 3.59762L8.73541 3.50814ZM10.9261 3.06701C10.9126 2.52194 10.899 1.974 10.8853 1.42099C11.7768 1.46879 12.6359 1.63896 13.446 1.91499C13.3886 2.08496 13.3317 2.25267 13.2753 2.41889L13.2743 2.42178C13.1562 2.76983 13.0404 3.11138 12.9267 3.45358C12.7637 3.94416 12.6045 4.43596 12.447 4.92805C12.4218 5.00708 12.3878 5.02471 12.306 5.00434C12.0668 4.94507 11.8264 4.88611 11.5835 4.84659C11.4518 4.82522 11.3177 4.81745 11.1748 4.80916C11.1083 4.8053 11.0399 4.80133 10.9689 4.79583C10.9556 4.26054 10.9424 3.7247 10.929 3.1862L10.9261 3.06701ZM13.0692 4.24954C13.311 3.52227 13.5552 2.78766 13.8024 2.04446C14.6856 2.38545 15.5054 2.85403 16.2391 3.4276C15.783 3.88923 15.3286 4.34905 14.8776 4.80549L14.8702 4.81302C14.5221 5.16527 14.1761 5.51551 13.8327 5.86301C13.6414 5.73439 13.455 5.60926 13.2691 5.48443L13.2615 5.47932C13.0984 5.36985 12.9356 5.26057 12.7701 5.14933C12.8625 4.87155 12.9551 4.59277 13.0482 4.3129L13.0692 4.24954ZM14.5676 5.64398C15.2316 4.99982 15.8994 4.3519 16.5714 3.69962C17.118 4.16775 17.611 4.6966 18.04 5.27571C17.4839 5.57665 16.9306 5.87597 16.3787 6.1746L16.3341 6.19872C15.8025 6.48635 15.272 6.77336 14.7413 7.06058C14.5215 6.75024 14.309 6.44994 14.0762 6.12076L14.5676 5.64398ZM18.1926 5.62623C18.222 5.60991 18.2464 5.59999 18.2674 5.59636C18.7127 6.2521 19.0785 6.96619 19.3509 7.72477C19.2671 7.74644 19.185 7.7676 19.1041 7.78841C18.8798 7.8462 18.6654 7.90143 18.4513 7.95814C18.3112 7.99524 18.1712 8.03341 18.0314 8.07155C17.8265 8.12747 17.6215 8.18338 17.4157 8.23596C17.1358 8.30754 16.8555 8.37782 16.5752 8.44811C16.2211 8.53688 15.867 8.62567 15.5136 8.71711C15.406 8.74507 15.3549 8.73778 15.3163 8.6165C15.1978 8.24355 15.0656 7.87516 14.9321 7.50708C14.9023 7.4244 14.9236 7.39827 14.9972 7.35906C15.354 7.16867 15.709 6.97508 16.0641 6.78148C16.2448 6.68299 16.4254 6.58449 16.6063 6.48641C16.7827 6.39076 16.9596 6.29554 17.1363 6.20039C17.4892 6.01043 17.8421 5.82042 18.1926 5.62623ZM10.0775 10.8073C10.2494 10.3414 10.6159 9.96967 11.0784 9.79073C9.32552 8.87594 7.49016 8.40152 5.50903 8.38185C5.576 8.68409 5.64212 8.98221 5.70777 9.2782L5.70997 9.28813C5.79047 9.65108 5.87027 10.0109 5.95006 10.3712C5.96328 10.3724 5.97498 10.3738 5.9857 10.3751C6.00456 10.3773 6.02038 10.3791 6.03608 10.3791C6.16561 10.3786 6.29538 10.3768 6.42501 10.3751C7.02418 10.367 7.62374 10.3589 8.21694 10.4703C8.7759 10.5752 9.33274 10.6916 9.88745 10.8171C9.97128 10.836 10.0307 10.8391 10.0775 10.8073ZM11.3315 9.55875C11.4069 9.60729 11.4785 9.65273 11.5599 9.68043C11.6072 9.67655 11.655 9.67458 11.7034 9.67458C12.6602 9.67458 13.4359 10.4503 13.4359 11.4071C13.4359 11.7362 13.3441 12.0439 13.1848 12.306C13.1703 12.3428 13.156 12.3802 13.1422 12.4183L13.8149 12.8657C14.4422 13.2828 15.0758 13.7047 15.7096 14.1262C15.714 14.1224 15.7184 14.1186 15.7227 14.1147C15.727 14.1108 15.7314 14.1069 15.7358 14.1031C15.7165 14.0551 15.696 14.0074 15.6755 13.9598C15.6315 13.8576 15.5874 13.7555 15.5561 13.6493C15.3577 12.9758 15.2984 12.2834 15.2735 11.5846C15.2707 11.5065 15.2681 11.4283 15.2656 11.35C15.2495 10.8613 15.2335 10.3712 15.1677 9.88884C15.0954 9.35723 14.9613 8.83109 14.82 8.31194C14.6513 7.6931 14.3565 7.12988 13.9531 6.62805C13.3574 5.88672 12.5966 5.4314 11.6552 5.25511C10.944 5.12197 10.2561 5.19979 9.57377 5.39097C9.03882 5.54082 8.54156 5.77851 8.08107 6.09188C7.47317 6.50526 6.97286 7.0162 6.64034 7.67851C6.60375 7.75127 6.57586 7.82846 6.54637 7.91003C6.53251 7.94838 6.5183 7.98772 6.50265 8.02805C6.57487 8.03609 6.64337 8.04409 6.70933 8.0518C6.85045 8.0683 6.97997 8.08343 7.10964 8.09462C7.67955 8.14386 8.23487 8.26787 8.7838 8.42228C9.68806 8.67669 10.5403 9.05024 11.3315 9.55875ZM20.366 10.9512C20.366 16.474 15.8888 20.9512 10.366 20.9512C4.84312 20.9512 0.365967 16.474 0.365967 10.9512C0.365967 5.42832 4.84312 0.951172 10.366 0.951172C15.8888 0.951172 20.366 5.42832 20.366 10.9512ZM13.0711 11.4071C13.0711 12.1625 12.4588 12.7749 11.7034 12.7749C10.9479 12.7749 10.3356 12.1625 10.3356 11.4071C10.3356 10.6517 10.9479 10.0393 11.7034 10.0393C12.4588 10.0393 13.0711 10.6517 13.0711 11.4071Z" stroke="#1246FF" style="stroke:#1246FF;stroke:color(display-p3 0.0706 0.2745 1.0000);stroke-opacity:1;" stroke-width="0.7"/>
</svg>
