<svg width="16" height="14" viewBox="0 0 16 14" fill="none" xmlns="http://www.w3.org/2000/svg">
<path d="M7.63067 0.288363C7.76731 -0.0401541 8.23269 -0.040155 8.36933 0.288362L10.0222 4.26234C10.0798 4.40084 10.21 4.49547 10.3596 4.50745L14.6498 4.8514C15.0045 4.87983 15.1483 5.32244 14.8781 5.5539L11.6094 8.35391C11.4954 8.45149 11.4457 8.6046 11.4805 8.7505L12.4791 12.9371C12.5617 13.2831 12.1852 13.5567 11.8816 13.3712L8.2085 11.1277C8.0805 11.0496 7.9195 11.0496 7.7915 11.1277L4.11845 13.3712C3.81481 13.5567 3.43831 13.2831 3.52086 12.9371L4.51951 8.7505C4.55431 8.6046 4.50456 8.45149 4.39065 8.35391L1.12193 5.55391C0.851716 5.32244 0.995526 4.87983 1.35019 4.8514L5.64044 4.50745C5.78995 4.49547 5.9202 4.40084 5.9778 4.26235L7.63067 0.288363Z" fill="#F5CC37" style="fill:#F5CC37;fill:color(display-p3 0.9626 0.7984 0.2160);fill-opacity:1;"/>
</svg>
