<svg width="21" height="21" viewBox="0 0 21 21" fill="none" xmlns="http://www.w3.org/2000/svg">
<g clip-path="url(#clip0_994_560)">
<path d="M8.16117 18.4539C8.74878 18.9726 9.52065 19.2873 10.366 19.2873C11.2114 19.2873 11.9833 18.9726 12.5709 18.4539M15.366 7.62061C15.366 6.29452 14.8392 5.02275 13.9016 4.08507C12.9639 3.14739 11.6921 2.62061 10.366 2.62061C9.03994 2.62061 7.76817 3.14739 6.83049 4.08507C5.89281 5.02275 5.36602 6.29452 5.36602 7.62061C5.36602 10.1958 4.71641 11.9589 3.99074 13.1251C3.37863 14.1088 3.07257 14.6007 3.08379 14.7379C3.09622 14.8898 3.12841 14.9478 3.25084 15.0386C3.36141 15.1206 3.85985 15.1206 4.85673 15.1206H15.8753C16.8722 15.1206 17.3706 15.1206 17.4812 15.0386C17.6036 14.9478 17.6358 14.8898 17.6483 14.7379C17.6595 14.6007 17.3534 14.1088 16.7413 13.1251C16.0156 11.9589 15.366 10.1958 15.366 7.62061Z" stroke="#1246FF" style="stroke:#1246FF;stroke:color(display-p3 0.0706 0.2745 1.0000);stroke-opacity:1;" stroke-width="2" stroke-linecap="round" stroke-linejoin="round"/>
</g>
<defs>
<clipPath id="clip0_994_560">
<rect width="20" height="20" fill="white" style="fill:white;fill-opacity:1;" transform="translate(0.366211 0.953918)"/>
</clipPath>
</defs>
</svg>
