<svg width="16" height="12" viewBox="0 0 16 12" fill="none" xmlns="http://www.w3.org/2000/svg">
<path d="M1.61342 6.4761C1.52262 6.33234 1.47723 6.26046 1.45182 6.14959C1.43273 6.06632 1.43273 5.93498 1.45182 5.85171C1.47723 5.74084 1.52262 5.66896 1.61341 5.5252C2.36369 4.33721 4.59693 1.33398 8.00027 1.33398C11.4036 1.33398 13.6369 4.33721 14.3871 5.5252C14.4779 5.66896 14.5233 5.74084 14.5487 5.85171C14.5678 5.93498 14.5678 6.06632 14.5487 6.14959C14.5233 6.26046 14.4779 6.33234 14.3871 6.4761C13.6369 7.66409 11.4036 10.6673 8.00027 10.6673C4.59693 10.6673 2.36369 7.66409 1.61342 6.4761Z" stroke="#868686" style="stroke:#868686;stroke:color(display-p3 0.5274 0.5274 0.5274);stroke-opacity:1;" stroke-width="1.33333" stroke-linecap="round" stroke-linejoin="round"/>
<path d="M8.00027 8.00065C9.10484 8.00065 10.0003 7.10522 10.0003 6.00065C10.0003 4.89608 9.10484 4.00065 8.00027 4.00065C6.8957 4.00065 6.00027 4.89608 6.00027 6.00065C6.00027 7.10522 6.8957 8.00065 8.00027 8.00065Z" stroke="#868686" style="stroke:#868686;stroke:color(display-p3 0.5274 0.5274 0.5274);stroke-opacity:1;" stroke-width="1.33333" stroke-linecap="round" stroke-linejoin="round"/>
</svg>
