<svg width="19" height="18" viewBox="0 0 19 18" fill="none" xmlns="http://www.w3.org/2000/svg">
<path d="M12.6994 5.20052C12.6994 4.42554 12.6994 4.03806 12.6142 3.72014C12.383 2.85741 11.7092 2.18354 10.8464 1.95237C10.5285 1.86719 10.141 1.86719 9.36605 1.86719C8.59107 1.86719 8.20358 1.86719 7.88567 1.95237C7.02294 2.18354 6.34907 2.85741 6.1179 3.72014C6.03272 4.03806 6.03272 4.42554 6.03272 5.20052M3.69938 16.8672H15.0327C15.9661 16.8672 16.4328 16.8672 16.7894 16.6855C17.103 16.5257 17.3579 16.2708 17.5177 15.9572C17.6994 15.6007 17.6994 15.1339 17.6994 14.2005V7.86719C17.6994 6.93377 17.6994 6.46706 17.5177 6.11054C17.3579 5.79693 17.103 5.54197 16.7894 5.38218C16.4328 5.20052 15.9661 5.20052 15.0327 5.20052H3.69938C2.76596 5.20052 2.29925 5.20052 1.94273 5.38218C1.62913 5.54197 1.37416 5.79693 1.21437 6.11054C1.03271 6.46706 1.03271 6.93377 1.03271 7.86719V14.2005C1.03271 15.1339 1.03271 15.6007 1.21437 15.9572C1.37416 16.2708 1.62913 16.5257 1.94273 16.6855C2.29925 16.8672 2.76596 16.8672 3.69938 16.8672Z" stroke="#1246FF" style="stroke:#1246FF;stroke:color(display-p3 0.0706 0.2745 1.0000);stroke-opacity:1;" stroke-width="2" stroke-linecap="round" stroke-linejoin="round"/>
</svg>
